# xmcd
#
# Track frame offsets:
#	150
#	9132
#	23234
#	34383
#	37598
#	48670
#	67335
#	79608
#	93327
#	103050
#	111032
#	127816
#	139045
#	154826
#	163725
#
# Disc length: 2235 seconds
#
# Revision: 1
# Processed by: cddbd v1.4PL0 Copyright (c) Steve Scherf et al.
# Submitted via: EasyCDDAExtractor 6.0.0.1
#
DISCID=b908b90f
DTITLE=Lucia Minetti - Mormoro l'amore
DYEAR=1900
DGENRE=
TTITLE0=L'altra metà - je ne sais pas dire je t'aime
TTITLE1=Pierre
TTITLE2=Au Bois de Saint Armand
TTITLE3=Ne me quitte pas
TTITLE4=Dors mon amour
TTITLE5=Je ne t'aime pas
TTITLE6=Kanonen Song - Ma plus belle histoire d'amour
TTITLE7=Le Déserteur
TTITLE8=Ti parlerò d'amor
TTITLE9=Non arrossire
TTITLE10=Ma l'amore no
TTITLE11=Le signorine da marito - L'aigle noir
TTITLE12=Ni belle, ni bonne
TTITLE13=L'altra metà
TTITLE14=Late show
EXTD=
EXTT0=
EXTT1=
EXTT2=
EXTT3=
EXTT4=
EXTT5=
EXTT6=
EXTT7=
EXTT8=
EXTT9=
EXTT10=
EXTT11=
EXTT12=
EXTT13=
EXTT14=
PLAYORDER=
